<svg width="32" height="32" viewBox="0 0 32 32" fill="none" xmlns="http://www.w3.org/2000/svg">
  <path d="M29.8323 14.9221C30.2919 13.8238 30.4832 12.6403 30.3919 11.4621C30.3006 10.2839 29.9293 9.14546 29.3079 8.13019C28.6865 7.11492 27.8329 6.25214 26.8171 5.61414C25.8013 4.97614 24.6526 4.58057 23.4656 4.45885C22.7441 3.48679 21.8089 2.69447 20.7343 2.14484C19.6597 1.59521 18.4744 1.30222 17.2709 1.28911C16.0674 1.276 14.8761 1.54313 13.7899 2.07004C12.7037 2.59695 11.7516 3.36979 11.0094 4.32619C9.95536 4.20162 8.88611 4.31675 7.88158 4.66267C6.87705 5.00859 5.96254 5.57602 5.20134 6.32242C4.44014 7.06882 3.85458 7.97205 3.48844 8.97001C3.1223 9.96797 2.98507 11.0363 3.08751 12.0945C2.38669 13.0528 1.92969 14.1582 1.75373 15.3195C1.57777 16.4808 1.68765 17.6661 2.07426 18.7747C2.46087 19.8833 3.11325 20.8815 3.97266 21.6834C4.83207 22.4853 5.87264 23.0681 7.00751 23.3845C7.72903 24.3566 8.66423 25.1489 9.73883 25.6985C10.8134 26.2481 11.9987 26.5411 13.2022 26.5542C14.4057 26.5673 15.597 26.3002 16.6832 25.7733C17.7694 25.2464 18.7215 24.4735 19.4637 23.5171C20.5177 23.6417 21.587 23.5266 22.5915 23.1807C23.596 22.8347 24.5105 22.2673 25.2717 21.5209C26.0329 20.7745 26.6185 19.8713 26.9846 18.8733C27.3508 17.8754 27.488 16.807 27.3856 15.7489C28.0864 15.5401 28.7328 15.1908 29.2823 14.7246C29.4656 14.7246 29.6489 14.8163 29.8323 14.9221Z" fill="white"/>
  <path d="M16.0001 26.2857C21.7791 26.2857 26.4644 21.6004 26.4644 15.8214C26.4644 10.0424 21.7791 5.35712 16.0001 5.35712C10.2211 5.35712 5.53577 10.0424 5.53577 15.8214C5.53577 21.6004 10.2211 26.2857 16.0001 26.2857Z" fill="url(#paint0_linear_1_2)"/>
  <path d="M20.9286 11.9643L14.1429 18.75L11.0714 15.6786" stroke="white" stroke-width="1.5" stroke-linecap="round" stroke-linejoin="round"/>
  <defs>
    <linearGradient id="paint0_linear_1_2" x1="5.53577" y1="15.8214" x2="26.4644" y2="15.8214" gradientUnits="userSpaceOnUse">
      <stop stop-color="#10A37F"/>
      <stop offset="1" stop-color="#10A37F"/>
    </linearGradient>
  </defs>
</svg>
