<svg width="32" height="32" viewBox="0 0 32 32" fill="none" xmlns="http://www.w3.org/2000/svg">
  <rect width="32" height="32" rx="16" fill="#E6F7FF"/>
  <path d="M16 6C10.4772 6 6 10.4772 6 16C6 21.5228 10.4772 26 16 26C21.5228 26 26 21.5228 26 16C26 10.4772 21.5228 6 16 6ZM16 8C20.4183 8 24 11.5817 24 16C24 20.4183 20.4183 24 16 24C11.5817 24 8 20.4183 8 16C8 11.5817 11.5817 8 16 8Z" fill="#0096FF"/>
  <path d="M16 10L10 16L16 22L22 16L16 10ZM16 12.8284L19.1716 16L16 19.1716L12.8284 16L16 12.8284Z" fill="#0096FF"/>
  <circle cx="16" cy="16" r="2" fill="#0096FF"/>
</svg>
